<svg xmlns="http://www.w3.org/2000/svg" width="1600" height="900" viewBox="0 0 1600 900" fill="none">
  <rect width="1600" height="900" rx="36" fill="#08141B"/>
  <rect x="90" y="120" width="320" height="220" rx="28" fill="#102B34" stroke="#295766"/>
  <rect x="490" y="120" width="320" height="220" rx="28" fill="#102B34" stroke="#295766"/>
  <rect x="890" y="120" width="320" height="220" rx="28" fill="#102B34" stroke="#295766"/>
  <rect x="1290" y="120" width="220" height="220" rx="28" fill="#102B34" stroke="#295766"/>
  <rect x="270" y="500" width="320" height="220" rx="28" fill="#132D38" stroke="#295766"/>
  <rect x="670" y="500" width="320" height="220" rx="28" fill="#132D38" stroke="#295766"/>
  <rect x="1070" y="500" width="320" height="220" rx="28" fill="#132D38" stroke="#295766"/>
  <path d="M410 230H490" stroke="#6CD0C2" stroke-width="8" stroke-linecap="round"/>
  <path d="M810 230H890" stroke="#6CD0C2" stroke-width="8" stroke-linecap="round"/>
  <path d="M1210 230H1290" stroke="#6CD0C2" stroke-width="8" stroke-linecap="round"/>
  <path d="M570 610H670" stroke="#F97352" stroke-width="8" stroke-linecap="round"/>
  <path d="M990 610H1070" stroke="#F97352" stroke-width="8" stroke-linecap="round"/>
  <text x="140" y="210" fill="#F4F8FA" font-size="32" font-family="Segoe UI, Arial">Frontend</text>
  <text x="535" y="210" fill="#F4F8FA" font-size="32" font-family="Segoe UI, Arial">FastAPI routes</text>
  <text x="930" y="210" fill="#F4F8FA" font-size="32" font-family="Segoe UI, Arial">Realtime manager</text>
  <text x="1320" y="210" fill="#F4F8FA" font-size="32" font-family="Segoe UI, Arial">Rooms</text>
  <text x="300" y="590" fill="#F4F8FA" font-size="32" font-family="Segoe UI, Arial">Model service</text>
  <text x="720" y="590" fill="#F4F8FA" font-size="32" font-family="Segoe UI, Arial">Inference engines</text>
  <text x="1120" y="590" fill="#F4F8FA" font-size="32" font-family="Segoe UI, Arial">Training pipeline</text>
  <text x="90" y="80" fill="#6CD0C2" font-size="24" font-family="Segoe UI, Arial">SignBridge system architecture</text>
</svg>
